<svg width="15" height="11" viewBox="0 0 15 11" fill="none" xmlns="http://www.w3.org/2000/svg">
<path d="M5.95145 7.58482L10.0028 5.49219L5.95145 3.37444V7.58482ZM7.5 0.36942C8.4375 0.36942 9.34152 0.38337 10.2121 0.411272C11.0882 0.433593 11.7299 0.458705 12.1373 0.486607L12.7483 0.520089C12.7539 0.520089 12.8013 0.525669 12.8906 0.53683C12.9799 0.54241 13.0441 0.550781 13.0831 0.561941C13.1222 0.567522 13.1864 0.578682 13.2757 0.595423C13.3705 0.612164 13.4515 0.634486 13.5184 0.662388C13.5854 0.69029 13.6635 0.726562 13.7528 0.771205C13.8421 0.815848 13.9286 0.871652 14.0123 0.938616C14.096 0.999999 14.1769 1.07254 14.255 1.15625C14.2885 1.18973 14.3304 1.24274 14.3806 1.31529C14.4364 1.38225 14.5173 1.54408 14.6233 1.80078C14.7349 2.05748 14.8103 2.33929 14.8493 2.6462C14.894 3.00335 14.9275 3.3856 14.9498 3.79297C14.9777 4.19475 14.9944 4.51004 15 4.73884V5.07366V6.21205C15.0056 7.02121 14.9554 7.83036 14.8493 8.63951C14.8103 8.94643 14.7405 9.22545 14.6401 9.47656C14.5396 9.7221 14.4503 9.8923 14.3722 9.98717L14.255 10.1295C14.1769 10.2132 14.096 10.2885 14.0123 10.3555C13.9286 10.4169 13.8421 10.4699 13.7528 10.5145C13.6635 10.5536 13.5854 10.5871 13.5184 10.615C13.4515 10.6429 13.3705 10.6652 13.2757 10.6819C13.1864 10.6987 13.1194 10.7126 13.0748 10.7238C13.0357 10.7294 12.9715 10.7377 12.8823 10.7489C12.7985 10.7545 12.7539 10.7573 12.7483 10.7573C11.3477 10.8633 9.59821 10.9163 7.5 10.9163C6.34487 10.9051 5.3404 10.8884 4.48661 10.8661C3.63839 10.8382 3.08036 10.8158 2.8125 10.7991L2.40234 10.7656L2.101 10.7321C1.90011 10.7042 1.74665 10.6763 1.64063 10.6484C1.54018 10.6205 1.39788 10.5619 1.21373 10.4727C1.03516 10.3834 0.878906 10.269 0.744978 10.1295C0.711496 10.096 0.666853 10.0458 0.611049 9.97879C0.560826 9.90625 0.479911 9.74163 0.368304 9.48493C0.262277 9.22824 0.189732 8.94643 0.15067 8.63951C0.106027 8.28237 0.0697545 7.9029 0.0418527 7.50112C0.0195313 7.09375 0.00558036 6.77567 0 6.54688V6.21205V5.07366C-0.00558036 4.26451 0.0446429 3.45536 0.15067 2.6462C0.189732 2.33929 0.259487 2.06306 0.359933 1.81752C0.460379 1.56641 0.549665 1.39341 0.62779 1.29855L0.744978 1.15625C0.823103 1.07254 0.904018 0.999999 0.987723 0.938616C1.07143 0.871652 1.15792 0.815848 1.24721 0.771205C1.3365 0.726562 1.41462 0.69029 1.48158 0.662388C1.54855 0.634486 1.62667 0.612164 1.71596 0.595423C1.81083 0.578682 1.87779 0.567522 1.91685 0.561941C1.95592 0.550781 2.02009 0.54241 2.10938 0.53683C2.19866 0.525669 2.24609 0.520089 2.25167 0.520089C3.65234 0.419643 5.40179 0.36942 7.5 0.36942Z" fill="#E6F0F5"/>
</svg>
