<svg width="13" height="11" viewBox="0 0 13 11" fill="none" xmlns="http://www.w3.org/2000/svg">
<path d="M4.67913 0.85491L4.78795 0.988839C4.20201 1.15625 3.66629 1.35993 3.1808 1.59989C2.70089 1.83984 2.36607 2.03795 2.17634 2.1942L1.89174 2.42857C2.05357 2.33929 2.27121 2.23326 2.54464 2.11049C3.44866 1.71429 4.28013 1.4827 5.03906 1.41574C5.04464 1.41574 5.06975 1.41295 5.1144 1.40737C5.16462 1.39621 5.20368 1.39062 5.23159 1.39062C5.95145 1.29018 6.69085 1.2846 7.44978 1.37388C8.61049 1.50223 9.7154 1.85379 10.7645 2.42857C10.7422 2.40625 10.7059 2.37556 10.6557 2.3365C10.611 2.29743 10.505 2.21931 10.3376 2.10212C10.1758 1.98493 9.99721 1.87333 9.8019 1.7673C9.60659 1.65569 9.34989 1.53292 9.03181 1.399C8.71373 1.25949 8.37891 1.13672 8.02734 1.03069L8.17801 0.85491C8.21708 0.85491 8.27288 0.8577 8.34542 0.86328C8.42355 0.86328 8.57701 0.882812 8.8058 0.921874C9.04018 0.960937 9.27176 1.01674 9.50056 1.08929C9.73493 1.16183 10.014 1.27902 10.3376 1.44085C10.6669 1.5971 10.9794 1.78683 11.2751 2.01004C11.3198 2.08817 11.3756 2.19978 11.4425 2.34487C11.5151 2.48437 11.6406 2.78292 11.8192 3.24051C12.0033 3.6981 12.1652 4.16406 12.3047 4.63839C12.4442 5.11272 12.5698 5.69866 12.6814 6.39621C12.7985 7.08817 12.8571 7.76339 12.8571 8.42187C12.8292 8.46652 12.7902 8.52511 12.74 8.59766C12.6897 8.6702 12.567 8.79855 12.3717 8.9827C12.1763 9.16685 11.9615 9.33147 11.7271 9.47656C11.4927 9.62165 11.1747 9.75837 10.7729 9.88672C10.3711 10.0095 9.9442 10.0792 9.49219 10.096C9.22433 9.78348 8.98159 9.48772 8.76395 9.20871C9.03181 9.13058 9.28292 9.03292 9.5173 8.91574C9.75726 8.79855 9.94699 8.68415 10.0865 8.57254C10.2316 8.45536 10.3571 8.34654 10.4632 8.24609C10.5692 8.14007 10.6445 8.05357 10.6892 7.98661L10.7561 7.89453C10.3097 8.18471 9.88839 8.40234 9.49219 8.54743C8.98996 8.75949 8.45703 8.91574 7.89342 9.01618C6.97824 9.18917 6.02679 9.18638 5.03906 9.00781C4.54241 8.91295 4.00391 8.75391 3.42355 8.53069C3.09989 8.40234 2.83203 8.27958 2.61998 8.16239C2.60882 8.15681 2.59208 8.14844 2.56975 8.13728C2.54743 8.12054 2.53069 8.10937 2.51953 8.10379C2.51395 8.10379 2.5 8.09263 2.47768 8.07031L2.16797 7.88616C2.18471 7.90848 2.20703 7.94196 2.23493 7.98661C2.26283 8.02567 2.33259 8.10379 2.4442 8.22098C2.5558 8.33817 2.67857 8.44978 2.8125 8.5558C2.94643 8.65625 3.12779 8.76786 3.35658 8.89062C3.58538 9.00781 3.83092 9.10547 4.09319 9.18359L3.35658 10.096C2.90458 10.0792 2.47768 10.0123 2.07589 9.89509C1.67969 9.77232 1.35882 9.63281 1.11328 9.47656C0.873326 9.31473 0.664063 9.1529 0.485491 8.99107C0.30692 8.82924 0.181362 8.69531 0.108817 8.58929L0 8.42187C0 7.76339 0.0530134 7.09375 0.15904 6.41295C0.270647 5.72656 0.404576 5.13225 0.560826 4.63002C0.717076 4.12221 0.870536 3.66462 1.02121 3.25725C1.17746 2.84989 1.31138 2.54018 1.42299 2.32812L1.58203 2.01004C1.87779 1.78683 2.18471 1.5971 2.50279 1.44085C2.82645 1.27902 3.11105 1.16183 3.35658 1.08929C3.6077 1.01674 3.83371 0.960937 4.0346 0.921874C4.24107 0.882812 4.40011 0.86049 4.51172 0.85491H4.67913ZM5.16462 5.31641C4.94699 5.07645 4.68192 4.95647 4.36942 4.95647C4.05692 4.95647 3.79185 5.07645 3.57422 5.31641C3.35658 5.55636 3.24777 5.84375 3.24777 6.17857C3.24777 6.51339 3.35658 6.80078 3.57422 7.04074C3.79743 7.28069 4.0625 7.40067 4.36942 7.40067C4.68192 7.40067 4.94699 7.28069 5.16462 7.04074C5.38225 6.80078 5.49107 6.51339 5.49107 6.17857C5.49665 5.84375 5.38784 5.55636 5.16462 5.31641ZM9.18248 5.31641C8.96484 5.07645 8.69978 4.95647 8.38728 4.95647C8.07478 4.95647 7.80971 5.07645 7.59208 5.31641C7.37444 5.55636 7.26563 5.84375 7.26563 6.17857C7.26563 6.51339 7.37444 6.80078 7.59208 7.04074C7.81529 7.28069 8.08036 7.40067 8.38728 7.40067C8.69978 7.40067 8.96484 7.28069 9.18248 7.04074C9.40011 6.80078 9.50893 6.51339 9.50893 6.17857C9.50893 5.84375 9.40011 5.55636 9.18248 5.31641Z" fill="#E6F0F5"/>
</svg>
