<svg width="14" height="11" viewBox="0 0 14 11" fill="none" xmlns="http://www.w3.org/2000/svg">
<path d="M13.192 1.55804C12.8181 2.10491 12.3661 2.57087 11.8359 2.95591C11.8415 3.03404 11.8443 3.15123 11.8443 3.30748C11.8443 4.03292 11.7383 4.75837 11.5262 5.48382C11.3142 6.20368 10.9905 6.89565 10.5552 7.55971C10.1256 8.22377 9.61217 8.8125 9.01507 9.32589C8.41797 9.83371 7.6981 10.2411 6.85547 10.548C6.01284 10.8493 5.11161 11 4.15179 11C2.63951 11 1.25558 10.5954 0 9.78627C0.195312 9.80859 0.412946 9.81975 0.652902 9.81975C1.90848 9.81975 3.02734 9.43471 4.00949 8.66462C3.42355 8.65346 2.899 8.47489 2.43583 8.12891C1.97266 7.77734 1.65458 7.33091 1.48158 6.78962C1.66574 6.81752 1.83594 6.83147 1.99219 6.83147C2.23214 6.83147 2.46931 6.80078 2.70368 6.7394C2.07868 6.61105 1.55971 6.30134 1.14676 5.81027C0.739397 5.31362 0.535714 4.73884 0.535714 4.08594V4.05246C0.915179 4.26451 1.32254 4.37891 1.75781 4.39565C1.38951 4.15011 1.09654 3.82924 0.878906 3.43304C0.661272 3.03683 0.552455 2.60714 0.552455 2.14397C0.552455 1.6529 0.675223 1.1981 0.920759 0.779576C1.59598 1.61105 2.41629 2.2779 3.3817 2.78013C4.35268 3.27679 5.39063 3.55301 6.49554 3.60882C6.45089 3.39676 6.42857 3.19029 6.42857 2.9894C6.42857 2.24163 6.69085 1.60547 7.2154 1.08091C7.74554 0.550781 8.38449 0.285714 9.13225 0.285714C9.9135 0.285714 10.572 0.570312 11.1077 1.13951C11.716 1.02232 12.2879 0.804687 12.8237 0.486607C12.6172 1.12835 12.221 1.625 11.635 1.97656C12.154 1.92076 12.673 1.78125 13.192 1.55804Z" fill="#E6F0F5"/>
</svg>
